<?xml version="1.0" encoding="iso-8859-1"?>
<!-- Uploaded to: SVG Repo, www.svgrepo.com, Generator: SVG Repo Mixer Tools -->
<svg height="800px" width="800px" version="1.1" id="Layer_1" xmlns="http://www.w3.org/2000/svg" xmlns:xlink="http://www.w3.org/1999/xlink" 
	 viewBox="0 0 512 512" xml:space="preserve">
<path style="fill:#CFCDD6;" d="M96.776,261.128c-9.742,0-17.64-7.898-17.64-17.64V118.464c0-9.742,7.898-17.64,17.64-17.64
	s17.64,7.898,17.64,17.64v125.024C114.416,253.231,106.518,261.128,96.776,261.128z"/>
<path style="fill:#DEE1E7;" d="M96.776,261.128c-9.742,0-17.64-7.898-17.64-17.64V118.464c0-9.742,7.898-17.64,17.64-17.64V261.128z
	"/>
<path style="fill:#CFCDD6;" d="M160.466,261.128c-9.742,0-17.64-7.898-17.64-17.64V118.464c0-9.742,7.898-17.64,17.64-17.64
	c9.742,0,17.64,7.898,17.64,17.64v125.024C178.106,253.231,170.208,261.128,160.466,261.128z"/>
<path style="fill:#DEE1E7;" d="M160.466,261.128c-9.742,0-17.64-7.898-17.64-17.64V118.464c0-9.742,7.898-17.64,17.64-17.64V261.128
	z"/>
<path style="fill:#CFCDD6;" d="M224.156,261.128c-9.742,0-17.64-7.898-17.64-17.64V118.464c0-9.742,7.898-17.64,17.64-17.64
	s17.64,7.898,17.64,17.64v125.024C241.796,253.231,233.899,261.128,224.156,261.128z"/>
<path style="fill:#DEE1E7;" d="M224.156,261.128c-9.742,0-17.64-7.898-17.64-17.64V118.464c0-9.742,7.898-17.64,17.64-17.64V261.128
	z"/>
<path style="fill:#CFCDD6;" d="M287.847,261.128c-9.742,0-17.64-7.898-17.64-17.64V118.464c0-9.742,7.898-17.64,17.64-17.64
	s17.64,7.898,17.64,17.64v125.024C305.487,253.231,297.589,261.128,287.847,261.128z"/>
<path style="fill:#DEE1E7;" d="M287.847,261.128c-9.742,0-17.64-7.898-17.64-17.64V118.464c0-9.742,7.898-17.64,17.64-17.64V261.128
	z"/>
<path style="fill:#CFCDD6;" d="M351.537,261.128c-9.742,0-17.64-7.898-17.64-17.64V118.464c0-9.742,7.898-17.64,17.64-17.64
	s17.64,7.898,17.64,17.64v125.024C369.177,253.231,361.279,261.128,351.537,261.128z"/>
<path style="fill:#DEE1E7;" d="M351.537,261.128c-9.742,0-17.64-7.898-17.64-17.64V118.464c0-9.742,7.898-17.64,17.64-17.64V261.128
	z"/>
<path style="fill:#CFCDD6;" d="M415.227,261.128c-9.742,0-17.64-7.898-17.64-17.64V118.464c0-9.742,7.898-17.64,17.64-17.64
	s17.64,7.898,17.64,17.64v125.024C432.867,253.231,424.969,261.128,415.227,261.128z"/>
<path style="fill:#DEE1E7;" d="M415.227,261.128c-9.742,0-17.64-7.898-17.64-17.64V118.464c0-9.742,7.898-17.64,17.64-17.64V261.128
	z"/>
<path style="fill:#BC2A46;" d="M469.536,0H42.465c-9.742,0-17.64,7.898-17.64,17.64v53.634c0,1.17,0.115,2.313,0.334,3.419
	c1.699,14.267,8.418,27.422,19.048,37.216c11.17,10.29,25.689,15.956,40.883,15.956s29.714-5.666,40.883-15.956
	c0.629-0.58,1.245-1.171,1.846-1.773c0.601,0.603,1.216,1.194,1.845,1.773c11.169,10.29,25.687,15.956,40.881,15.956
	c15.194,0,29.714-5.666,40.883-15.956c0.629-0.58,1.245-1.17,1.845-1.773c0.602,0.603,1.216,1.194,1.845,1.773
	c11.168,10.29,25.689,15.956,40.883,15.956s29.714-5.667,40.883-15.956c0.629-0.58,1.244-1.17,1.845-1.773
	c0.602,0.603,1.216,1.194,1.845,1.773c11.169,10.29,25.689,15.956,40.883,15.956s29.713-5.666,40.883-15.956
	c0.629-0.58,1.244-1.171,1.845-1.773c0.602,0.602,1.217,1.194,1.845,1.773c11.17,10.29,25.689,15.956,40.883,15.956
	c15.195,0,29.714-5.667,40.884-15.957c10.623-9.787,17.339-22.932,19.044-37.189c0.221-1.116,0.336-2.269,0.336-3.449V17.64
	C487.176,7.898,479.278,0,469.536,0z"/>
<path style="fill:#D62D46;" d="M256.001,0H42.465c-9.742,0-17.64,7.898-17.64,17.64v53.634c0,1.17,0.115,2.313,0.334,3.419
	c1.699,14.267,8.418,27.422,19.048,37.216c11.17,10.29,25.689,15.956,40.883,15.956s29.714-5.666,40.883-15.956
	c0.629-0.58,1.245-1.171,1.846-1.773c0.601,0.603,1.216,1.194,1.845,1.773c11.169,10.29,25.687,15.956,40.881,15.956
	c15.194,0,29.714-5.666,40.883-15.956c0.629-0.58,1.245-1.17,1.845-1.773c0.602,0.603,1.216,1.194,1.845,1.773
	c11.168,10.29,25.689,15.956,40.883,15.956V0H256.001z"/>
<path style="fill:#F79D1E;" d="M451.018,242.108H60.983c-9.742,0-17.64,7.898-17.64,17.64v175.373c0,9.742,7.898,17.64,17.64,17.64
	h390.033c9.742,0,17.64-7.898,17.64-17.64V259.749C468.658,250.005,460.76,242.108,451.018,242.108z"/>
<path style="fill:#FBB03B;" d="M256.001,242.108H60.983c-9.742,0-17.64,7.898-17.64,17.64v175.373c0,9.742,7.898,17.64,17.64,17.64
	H256V242.108H256.001z"/>
<path style="fill:#0E4151;" d="M138.184,358.242c-42.391,0-76.879,34.487-76.879,76.879S95.793,512,138.184,512
	s76.879-34.487,76.879-76.879S180.576,358.242,138.184,358.242z"/>
<path style="fill:#144F66;" d="M138.184,358.242c-42.391,0-76.879,34.487-76.879,76.879S95.793,512,138.184,512V358.242z"/>
<path style="fill:#CFCDD6;" d="M138.184,397.82c-20.568,0-37.302,16.733-37.302,37.302c0,20.568,16.733,37.302,37.302,37.302
	s37.302-16.733,37.302-37.302C175.486,414.553,158.753,397.82,138.184,397.82z"/>
<path style="fill:#DEE1E7;" d="M138.184,397.82c-20.568,0-37.302,16.733-37.302,37.302c0,20.568,16.733,37.302,37.302,37.302V397.82
	z"/>
<path style="fill:#0E4151;" d="M373.817,358.242c-42.391,0-76.879,34.487-76.879,76.879S331.425,512,373.817,512
	s76.879-34.487,76.879-76.879S416.208,358.242,373.817,358.242z"/>
<path style="fill:#144F66;" d="M373.817,358.242c-42.391,0-76.879,34.487-76.879,76.879S331.425,512,373.817,512V358.242z"/>
<path style="fill:#CFCDD6;" d="M373.817,397.82c-20.568,0-37.302,16.733-37.302,37.302c0,20.568,16.733,37.302,37.302,37.302
	c20.568,0,37.303-16.733,37.303-37.302C411.119,414.553,394.385,397.82,373.817,397.82z"/>
<path style="fill:#DEE1E7;" d="M373.817,397.82c-20.568,0-37.302,16.733-37.302,37.302c0,20.568,16.733,37.302,37.302,37.302V397.82
	z"/>
</svg>