<?xml version="1.0" encoding="iso-8859-1"?>
<!-- Uploaded to: SVG Repo, www.svgrepo.com, Generator: SVG Repo Mixer Tools -->
<svg version="1.1" id="Layer_1" xmlns="http://www.w3.org/2000/svg" xmlns:xlink="http://www.w3.org/1999/xlink" 
	 viewBox="0 0 512 512" xml:space="preserve">
<g>
	<rect x="458.986" y="105.817" style="fill:#808080;" width="18.506" height="233.176"/>
	<rect x="34.495" y="105.817" style="fill:#808080;" width="18.506" height="233.176"/>
	<rect x="398.348" y="105.817" style="fill:#808080;" width="18.506" height="233.176"/>
	<rect x="95.146" y="105.817" style="fill:#808080;" width="18.506" height="233.176"/>
	<rect x="337.71" y="117.131" style="fill:#808080;" width="18.506" height="221.863"/>
	<rect x="155.784" y="117.069" style="fill:#808080;" width="18.506" height="221.924"/>
	<rect x="277.06" y="105.817" style="fill:#808080;" width="18.506" height="233.176"/>
	<rect x="216.422" y="105.817" style="fill:#808080;" width="18.506" height="233.176"/>
</g>
<rect x="34.495" y="333.306" style="fill:#F7B239;" width="442.997" height="81.427"/>
<g>
	<path style="fill:#666666;" d="M34.495,105.817h18.506v51.41c-3.393-1.419-6.489-3.282-9.253-5.539
		c-3.751-3.06-6.884-6.81-9.253-11.005V105.817z"/>
	<path style="fill:#666666;" d="M95.146,105.817h18.506v40.207c-2.887,2.727-5.984,5.083-9.253,7.094
		c-2.961,1.826-6.058,3.343-9.253,4.577V105.817z"/>
	<path style="fill:#666666;" d="M155.784,117.069h18.506v43.699c-2.973,0.469-5.971,0.703-8.969,0.703h-0.284
		c-3.097-0.012-6.193-0.284-9.253-0.79C155.784,160.682,155.784,117.069,155.784,117.069z"/>
	<path style="fill:#666666;" d="M216.422,105.817h18.506v51.768c-3.195-1.258-6.304-2.838-9.253-4.713
		c-3.282-2.073-6.378-4.515-9.253-7.328V105.817z"/>
	<path style="fill:#666666;" d="M277.06,105.817h18.506v39.689c-2.862,2.825-5.971,5.28-9.253,7.353
		c-2.961,1.875-6.058,3.454-9.253,4.713V105.817z"/>
	<path style="fill:#666666;" d="M337.71,117.131h18.506v43.6c-3.06,0.518-6.156,0.79-9.253,0.802
		c-3.097,0.012-6.193-0.21-9.253-0.703V117.131z"/>
	<path style="fill:#666666;" d="M398.348,105.817h18.506v51.879c-3.195-1.221-6.292-2.751-9.253-4.565
		c-3.269-1.999-6.378-4.367-9.253-7.094V105.817z"/>
	<path style="fill:#666666;" d="M477.492,105.817v34.73c-2.381,4.195-5.502,7.933-9.253,11.017c-2.764,2.27-5.86,4.195-9.253,5.651
		v-51.397H477.492z"/>
	<path style="fill:#666666;" d="M482.292,425.639H20.394c-5.11,0-9.253-4.143-9.253-9.253c0-5.11,4.143-9.253,9.253-9.253h461.898
		c5.111,0,9.253,4.143,9.253,9.253C491.545,421.496,487.403,425.639,482.292,425.639z"/>
</g>
<path style="fill:#995C0D;" d="M385.53,352.848c35.092,0,63.537,28.445,63.537,63.537s-28.445,63.537-63.537,63.537
	c-35.078,0-63.537-28.445-63.537-63.537S350.452,352.848,385.53,352.848z"/>
<path style="fill:#B27214;" d="M385.525,386.138c16.726,0,30.265,13.538,30.265,30.243s-13.538,30.265-30.265,30.265
	c-16.705,0-30.243-13.56-30.243-30.265S368.821,386.138,385.525,386.138z"/>
<path style="fill:#995C0D;" d="M126.452,352.848c35.092,0,63.537,28.445,63.537,63.537s-28.445,63.537-63.537,63.537
	c-35.078,0-63.537-28.445-63.537-63.537C62.914,381.293,91.374,352.848,126.452,352.848z"/>
<path style="fill:#B27214;" d="M126.441,386.138c16.726,0,30.265,13.538,30.265,30.243s-13.538,30.265-30.265,30.265
	c-16.705,0-30.243-13.56-30.243-30.265S109.737,386.138,126.441,386.138z"/>
<path style="fill:#F95428;" d="M407.601,135.859c-5.836-3.565-11.128-8.291-15.582-14.163l-0.025-0.025l-0.358,0.469
	c-11.301,14.669-27.969,22.035-44.674,22.121c-17.1,0.099-34.211-7.439-45.636-22.577l-0.012-0.012l-0.136,0.185
	c-4.269,5.638-9.315,10.215-14.866,13.731c-9.204,5.836-19.764,8.76-30.325,8.76s-21.122-2.912-30.313-8.747
	c-5.626-3.553-10.733-8.204-15.027-13.929c-11.375,15.015-28.351,22.528-45.327,22.528c-0.099,0-0.185,0-0.284,0
	c-16.877-0.086-33.73-7.6-45.056-22.528l-0.012,0.012c-4.441,5.873-9.747,10.585-15.57,14.163
	c-15.286,9.389-34.174,10.869-50.595,4.441c-3.701-1.456-7.069-3.442-10.055-5.873c-9.031-7.365-14.435-18.679-14.435-30.745V72.075
	h24.675h404.011h24.687l-0.012,31.584c-0.012,12.066-5.453,23.256-14.435,30.634c-3.356,2.764-7.205,4.997-11.461,6.526
	C440.69,146.629,422.456,144.976,407.601,135.859z"/>
<polygon style="fill:#E54728;" points="482.686,75.776 482.674,98.415 29.314,98.415 29.314,75.776 "/>
<polygon style="fill:#F7B239;" points="434.744,32.077 457.999,72.075 53.988,72.075 77.244,32.077 "/>
<polygon style="fill:#E09B2D;" points="77.244,32.077 53.988,72.075 124.722,72.075 147.978,32.077 "/>
<path style="fill:#666666;" d="M502.747,81.328H9.253C4.142,81.328,0,77.185,0,72.075c0-5.11,4.142-9.253,9.253-9.253h493.494
	c5.111,0,9.253,4.143,9.253,9.253C512,77.185,507.858,81.328,502.747,81.328z"/>
</svg>