<?xml version="1.0" encoding="UTF-8"?>
<svg version="1.1" xmlns="http://www.w3.org/2000/svg" width="48" height="48">
<path d="M0 0 C1.32 0 2.64 0 4 0 C3.67 1.32 3.34 2.64 3 4 C3.66 4.33 4.32 4.66 5 5 C5 6.32 5 7.64 5 9 C5.99 8.67 6.98 8.34 8 8 C7.814375 7.195625 7.62875 6.39125 7.4375 5.5625 C7.293125 4.716875 7.14875 3.87125 7 3 C8 2 8 2 11.0625 1.9375 C12.5165625 1.9684375 12.5165625 1.9684375 14 2 C14 2.66 14 3.32 14 4 C13.01 4.66 12.02 5.32 11 6 C11.41684865 8.50109193 11.80059731 10.62611996 13 12.875 C14.39234567 15.83373456 14.62765961 18.77304997 15 22 C16.98 22.33 18.96 22.66 21 23 C21.495 24.98 21.495 24.98 22 27 C8.14 27 -5.72 27 -20 27 C-20 27.66 -20 28.32 -20 29 C-20.99 29.33 -21.98 29.66 -23 30 C-23.99 29.34 -24.98 28.68 -26 28 C-26.375 24.5 -26.375 24.5 -26 21 C-23 19 -23 19 -20 19 C-19.67 17.68 -19.34 16.36 -19 15 C-18.34 15 -17.68 15 -17 15 C-17 15.66 -17 16.32 -17 17 C-11.19137441 14.60078508 -5.59962003 11.8505108 0 9 C0 8.34 0 7.68 0 7 C-0.66 6.67 -1.32 6.34 -2 6 C-1.125 1.125 -1.125 1.125 0 0 Z " fill="#CDD6DA" transform="translate(26,14)"/>
<path d="M0 0 C0.66 0 1.32 0 2 0 C2 0.66 2 1.32 2 2 C3.98 1.34 5.96 0.68 8 0 C7.835 0.763125 7.67 1.52625 7.5 2.3125 C6.90854604 5.03596236 6.90854604 5.03596236 7 8 C6.34 8.66 5.68 9.32 5 10 C5.33 10.66 5.66 11.32 6 12 C3.69 12 1.38 12 -1 12 C-1 12.66 -1 13.32 -1 14 C-1.99 14.33 -2.98 14.66 -4 15 C-4.99 14.34 -5.98 13.68 -7 13 C-7.375 9.5 -7.375 9.5 -7 6 C-4 4 -4 4 -1 4 C-0.67 2.68 -0.34 1.36 0 0 Z " fill="#667E84" transform="translate(7,29)"/>
<path d="M0 0 C1.299375 0.16242187 1.299375 0.16242187 2.625 0.328125 C5 0.75 5 0.75 8 1.75 C7.67 3.07 7.34 4.39 7 5.75 C8.32 6.08 9.64 6.41 11 6.75 C11 7.08 11 7.41 11 7.75 C4.4 7.75 -2.2 7.75 -9 7.75 C-7.70985818 1.2992909 -6.68644315 -0.91540591 0 0 Z " fill="#B0BEC5" transform="translate(26,33.25)"/>
<path d="M0 0 C1.32 0 2.64 0 4 0 C3.67 1.32 3.34 2.64 3 4 C3.66 4.33 4.32 4.66 5 5 C4.67 6.65 4.34 8.3 4 10 C2.68 9.67 1.36 9.34 0 9 C0 8.34 0 7.68 0 7 C-0.66 6.67 -1.32 6.34 -2 6 C-1.125 1.125 -1.125 1.125 0 0 Z " fill="#FF3B00" transform="translate(26,14)"/>
<path d="M0 0 C1.4540625 0.0309375 1.4540625 0.0309375 2.9375 0.0625 C2.9375 0.7225 2.9375 1.3825 2.9375 2.0625 C1.9475 2.7225 0.9575 3.3825 -0.0625 4.0625 C0.2675 5.7125 0.5975 7.3625 0.9375 9.0625 C-0.3825 9.3925 -1.7025 9.7225 -3.0625 10.0625 C-3.0625 9.0725 -3.0625 8.0825 -3.0625 7.0625 C-3.248125 6.03125 -3.43375 5 -3.625 3.9375 C-3.769375 2.98875 -3.91375 2.04 -4.0625 1.0625 C-3.0625 0.0625 -3.0625 0.0625 0 0 Z " fill="#DC2E04" transform="translate(37.0625,15.9375)"/>
<path d="M0 0 C0.66 0.33 1.32 0.66 2 1 C2.33333333 2.66666667 2.66666667 4.33333333 3 6 C3.66 6.33 4.32 6.66 5 7 C5 7.66 5 8.32 5 9 C4.01 9.33 3.02 9.66 2 10 C1.01 9.34 0.02 8.68 -1 8 C-1.25 4.4375 -1.25 4.4375 -1 1 C-0.67 0.67 -0.34 0.34 0 0 Z " fill="#FC3B02" transform="translate(1,34)"/>
<path d="M0 0 C-0.33 1.65 -0.66 3.3 -1 5 C-2.65 5.33 -4.3 5.66 -6 6 C-5.625 3.5625 -5.625 3.5625 -5 1 C-3 0 -3 0 0 0 Z " fill="#CFD7DB" transform="translate(12,10)"/>
<path d="M0 0 C0.99 0.33 1.98 0.66 3 1 C3 2.98 3 4.96 3 7 C1.68 7 0.36 7 -1 7 C-1.04254356 5.00045254 -1.04080783 2.99958364 -1 1 C-0.67 0.67 -0.34 0.34 0 0 Z " fill="#CBDADE" transform="translate(15,17)"/>
<path d="M0 0 C1.98 0 3.96 0 6 0 C6 1.32 6 2.64 6 4 C4.02 4 2.04 4 0 4 C0 2.68 0 1.36 0 0 Z " fill="#CBDADE" transform="translate(13,3)"/>
<path d="M0 0 C0.66 0 1.32 0 2 0 C2 0.66 2 1.32 2 2 C2.99 2.33 3.98 2.66 5 3 C4.67 4.32 4.34 5.64 4 7 C2.35 6.01 0.7 5.02 -1 4 C-0.67 2.68 -0.34 1.36 0 0 Z " fill="#F88008" transform="translate(7,29)"/>
<path d="M0 0 C2 1.3125 2 1.3125 4 3 C4 3.99 4 4.98 4 6 C3.34 6 2.68 6 2 6 C1.67 6.66 1.34 7.32 1 8 C0.34 7.34 -0.32 6.68 -1 6 C-0.625 2.875 -0.625 2.875 0 0 Z " fill="#53595F" transform="translate(3,33)"/>
<path d="M0 0 C1 3 1 3 1 6 C-0.5 7.6875 -0.5 7.6875 -2 9 C-3 6 -3 6 -3 2 C-2.01 1.34 -1.02 0.68 0 0 Z " fill="#6B828E" transform="translate(14,29)"/>
</svg>
